<svg width="24" height="32" viewBox="0 0 24 32" fill="none" xmlns="http://www.w3.org/2000/svg">
<path fill-rule="evenodd" clip-rule="evenodd" d="M12 32C12 32 24 17.5317 24 11.2941C24 5.05655 18.6274 0 12 0C5.37258 0 0 5.05655 0 11.2941C0 17.5317 12 32 12 32ZM22 11.5294C22 16.7924 12 29 12 29C12 29 2 16.7924 2 11.5294C2 6.26646 6.47715 2 12 2C17.5228 2 22 6.26646 22 11.5294Z" fill="black"/>
<path d="M15.0001 13C15.0001 14.6569 13.6569 16 12.0001 16C10.3432 16 9.00005 14.6569 9.00005 13C9.00005 11.3431 10.3432 10 12.0001 10C13.6569 10 15.0001 11.3431 15.0001 13Z" fill="black"/>
</svg>
